<svg width="278" height="154" viewBox="0 0 278 154" fill="none" xmlns="http://www.w3.org/2000/svg">
<path d="M92.125 78.125V85.9375H78.75V119.812H70.125V85.9375H56.75V78.125H92.125ZM113.875 77.8125L133.375 120H123.188L120 112.188H103.438L100.25 120H90.0625L109.562 77.8125H113.875ZM111.75 92L106.5 104.812H117L111.75 92ZM151.688 77.3125C154.104 77.3125 156.312 77.6458 158.312 78.3125C160.312 78.9792 162 79.75 163.375 80.625V89.1875C161.875 88.2708 160.271 87.4167 158.562 86.625C156.854 85.8333 154.917 85.4375 152.75 85.4375C151.667 85.4375 150.583 85.6042 149.5 85.9375C148.458 86.2708 147.583 86.7708 146.875 87.4375C146.208 88.1042 145.875 88.9583 145.875 90C145.875 91.375 146.479 92.4167 147.688 93.125C148.896 93.8333 150.375 94.5417 152.125 95.25L157.25 97.375C160.167 98.625 162.312 100.146 163.688 101.938C165.062 103.729 165.75 105.771 165.75 108.062C165.75 110.562 165.021 112.771 163.562 114.688C162.146 116.562 160.229 118.042 157.812 119.125C155.438 120.208 152.792 120.75 149.875 120.75C147.417 120.75 145.062 120.333 142.812 119.5C140.562 118.667 138.604 117.646 136.938 116.438V107.875C138.771 109.208 140.792 110.333 143 111.25C145.208 112.167 147.562 112.625 150.062 112.625C151.812 112.625 153.312 112.292 154.562 111.625C155.812 110.917 156.438 109.875 156.438 108.5C156.438 107.417 155.917 106.542 154.875 105.875C153.875 105.167 152.771 104.583 151.562 104.125L145.125 101.625C141.875 100.375 139.667 98.75 138.5 96.75C137.375 94.7083 136.812 92.4583 136.812 90C136.812 87.4583 137.5 85.25 138.875 83.375C140.292 81.4583 142.125 79.9792 144.375 78.9375C146.625 77.8542 149.062 77.3125 151.688 77.3125ZM183.188 78.125V96.875L199.125 78.125H210.125L193.688 96.4375L212 120H200.625L187.75 103.062L183.188 108.188V120H174.5V78.125H183.188Z" fill="#0070C0"/>
<path d="M102.75 17.8125V60H94.0625V34.5L83.3125 46.25H80.8125L69.9375 34.5V60H61.25V17.8125H64.1875L82.0625 36.4375L99.8125 17.8125H102.75ZM118.875 28.4375L127.875 48.5625L136.625 28.4375H145.688L122.75 75H113.75L123.25 57.6875L109.625 28.4375H118.875Z" fill="black"/>
<path d="M10.0215 140.84V150H8.79102V143.369L5.96094 146.391H5.63281L2.73438 143.369V150H1.50391V140.84H1.88672L5.79688 145.037L9.63867 140.84H10.0215ZM15.5039 143.027C15.8958 143.027 16.2923 143.123 16.6934 143.314C17.1035 143.497 17.4544 143.752 17.7461 144.08V143.164H18.8672V150H17.7461V148.838C17.5091 149.202 17.1855 149.521 16.7754 149.795C16.3743 150.068 15.9141 150.205 15.3945 150.205C14.8112 150.205 14.278 150.059 13.7949 149.768C13.3118 149.467 12.9245 149.052 12.6328 148.523C12.3503 147.995 12.209 147.384 12.209 146.691C12.209 145.935 12.3503 145.283 12.6328 144.736C12.9245 144.189 13.321 143.77 13.8223 143.479C14.3236 143.178 14.8841 143.027 15.5039 143.027ZM15.709 144.121C15.2168 144.121 14.7975 144.244 14.4512 144.49C14.1048 144.736 13.8359 145.055 13.6445 145.447C13.4622 145.83 13.3711 146.245 13.3711 146.691C13.3711 147.129 13.4622 147.535 13.6445 147.908C13.8268 148.273 14.082 148.564 14.4102 148.783C14.7474 149.002 15.1348 149.111 15.5723 149.111C15.9915 149.111 16.3652 149.002 16.6934 148.783C17.0215 148.564 17.2812 148.264 17.4727 147.881C17.6641 147.489 17.7552 147.051 17.7461 146.568L17.7324 145.256C17.4499 144.9 17.1445 144.622 16.8164 144.422C16.4974 144.221 16.1283 144.121 15.709 144.121ZM27.2344 143.164L24.0625 146.145L27.4121 150H25.9902L23.2832 146.883L22.3125 147.785V150H21.1914V140.156H22.3125V146.5L25.7168 143.164H27.2344ZM31.0488 143.027C31.7507 143.027 32.334 143.173 32.7988 143.465C33.2637 143.757 33.61 144.153 33.8379 144.654C34.0749 145.156 34.1934 145.721 34.1934 146.35V147.02H28.9434C28.998 147.402 29.1302 147.753 29.3398 148.072C29.5495 148.391 29.8229 148.646 30.1602 148.838C30.4974 149.02 30.8848 149.111 31.3223 149.111C31.8145 149.111 32.2747 148.988 32.7031 148.742C33.1315 148.487 33.4915 148.209 33.7832 147.908L33.7695 149.125C33.6419 149.28 33.4505 149.444 33.1953 149.617C32.9492 149.781 32.6621 149.918 32.334 150.027C32.015 150.146 31.6777 150.205 31.3223 150.205C30.6296 150.205 30.0143 150.041 29.4766 149.713C28.9388 149.385 28.515 148.952 28.2051 148.414C27.9043 147.867 27.7539 147.27 27.7539 146.623C27.7539 145.976 27.8952 145.379 28.1777 144.832C28.4603 144.285 28.8477 143.848 29.3398 143.52C29.8411 143.191 30.4108 143.027 31.0488 143.027ZM31.0488 144.121C30.4837 144.121 30.0189 144.312 29.6543 144.695C29.2897 145.069 29.0618 145.525 28.9707 146.062H33.0859C33.0404 145.616 32.9128 145.251 32.7031 144.969C32.5026 144.686 32.2565 144.477 31.9648 144.34C31.6732 144.194 31.3678 144.121 31.0488 144.121ZM40.5234 143.164L42.916 148.195L45.2402 143.164H46.5801L41.5488 153.281H40.25L42.2051 149.59L39.1836 143.164H40.5234ZM51.0371 143.027C51.7298 143.027 52.3451 143.191 52.8828 143.52C53.4206 143.848 53.8398 144.285 54.1406 144.832C54.4505 145.379 54.6055 145.976 54.6055 146.623C54.6055 147.27 54.4505 147.867 54.1406 148.414C53.8398 148.952 53.4206 149.385 52.8828 149.713C52.3451 150.041 51.7298 150.205 51.0371 150.205C50.3444 150.205 49.7292 150.041 49.1914 149.713C48.6536 149.385 48.2298 148.952 47.9199 148.414C47.6191 147.867 47.4688 147.27 47.4688 146.623C47.4688 145.976 47.6191 145.379 47.9199 144.832C48.2298 144.285 48.6536 143.848 49.1914 143.52C49.7292 143.191 50.3444 143.027 51.0371 143.027ZM51.0371 144.121C50.554 144.121 50.1302 144.24 49.7656 144.477C49.401 144.704 49.1185 145.01 48.918 145.393C48.7266 145.766 48.6309 146.176 48.6309 146.623C48.6309 147.061 48.7266 147.471 48.918 147.854C49.1185 148.227 49.401 148.533 49.7656 148.77C50.1302 148.997 50.554 149.111 51.0371 149.111C51.5293 149.111 51.9531 148.997 52.3086 148.77C52.6732 148.533 52.9512 148.227 53.1426 147.854C53.3431 147.471 53.4434 147.061 53.4434 146.623C53.4434 146.176 53.3431 145.766 53.1426 145.393C52.9512 145.01 52.6732 144.704 52.3086 144.477C51.9531 144.24 51.5293 144.121 51.0371 144.121ZM62.043 143.164V147.211C62.043 147.812 61.9154 148.332 61.6602 148.77C61.4049 149.207 61.0586 149.544 60.6211 149.781C60.1836 150.018 59.6914 150.137 59.1445 150.137C58.5977 150.137 58.1055 150.018 57.668 149.781C57.2305 149.544 56.8841 149.207 56.6289 148.77C56.3737 148.332 56.2461 147.812 56.2461 147.211V143.164H57.4082V147.211C57.4082 147.803 57.5814 148.259 57.9277 148.578C58.2832 148.888 58.6888 149.043 59.1445 149.043C59.6003 149.043 60.0013 148.888 60.3477 148.578C60.7031 148.259 60.8809 147.803 60.8809 147.211V143.164H62.043ZM65.2832 143.164V144.531C65.5475 144.076 65.8665 143.711 66.2402 143.438C66.6139 143.164 66.9967 143.027 67.3887 143.027C67.653 143.027 67.89 143.073 68.0996 143.164V144.463C67.8079 144.29 67.5163 144.203 67.2246 144.203C66.7598 144.203 66.3815 144.367 66.0898 144.695C65.8073 145.023 65.5384 145.415 65.2832 145.871V150H64.1621V143.164H65.2832ZM75.5234 141.195V143.164H77.5195V144.217H75.5234V148.223C75.5234 148.505 75.5964 148.729 75.7422 148.893C75.888 149.057 76.1113 149.139 76.4121 149.139C76.6855 149.139 76.9134 149.107 77.0957 149.043C77.278 148.97 77.4375 148.893 77.5742 148.811V149.727C77.3919 149.872 77.196 149.986 76.9863 150.068C76.7858 150.16 76.5124 150.205 76.166 150.205C75.5827 150.205 75.1406 150.032 74.8398 149.686C74.5482 149.33 74.4023 148.861 74.4023 148.277V144.217H73.0898V143.889C73.5365 143.688 73.9102 143.36 74.2109 142.904C74.5117 142.439 74.776 141.87 75.0039 141.195H75.5234ZM80.6504 139.883C80.9147 139.883 81.1335 139.979 81.3066 140.17C81.4889 140.352 81.5801 140.566 81.5801 140.812C81.5801 141.049 81.4889 141.264 81.3066 141.455C81.1335 141.646 80.9147 141.742 80.6504 141.742C80.3861 141.742 80.1628 141.646 79.9805 141.455C79.8073 141.264 79.7207 141.049 79.7207 140.812C79.7207 140.566 79.8073 140.352 79.9805 140.17C80.1628 139.979 80.3861 139.883 80.6504 139.883ZM81.3477 143.164V150H80.2266V144.217H79.1465V143.164H81.3477ZM84.8887 143.164V144.039C85.1074 143.793 85.3854 143.565 85.7227 143.355C86.069 143.137 86.4746 143.027 86.9395 143.027C87.4316 143.027 87.8919 143.146 88.3203 143.383C88.7487 143.611 89.0768 143.957 89.3047 144.422C89.6237 144.039 89.9701 143.711 90.3438 143.438C90.7174 143.164 91.1549 143.027 91.6562 143.027C92.1211 143.027 92.554 143.132 92.9551 143.342C93.3652 143.542 93.6934 143.852 93.9395 144.271C94.1947 144.682 94.3223 145.201 94.3223 145.83V150H93.2012L93.1875 145.939C93.1875 145.347 93.0326 144.896 92.7227 144.586C92.4219 144.276 92.0026 144.121 91.4648 144.121C91.0729 144.121 90.7311 144.244 90.4395 144.49C90.1478 144.736 89.8698 145.023 89.6055 145.352V150H88.4844L88.4707 145.939C88.4707 145.347 88.3158 144.896 88.0059 144.586C87.7051 144.276 87.2858 144.121 86.748 144.121C86.3743 144.121 86.0326 144.23 85.7227 144.449C85.4219 144.668 85.1439 144.932 84.8887 145.242V150H83.7676V143.164H84.8887ZM99.2578 143.027C99.9596 143.027 100.543 143.173 101.008 143.465C101.473 143.757 101.819 144.153 102.047 144.654C102.284 145.156 102.402 145.721 102.402 146.35V147.02H97.1523C97.207 147.402 97.3392 147.753 97.5488 148.072C97.7585 148.391 98.0319 148.646 98.3691 148.838C98.7064 149.02 99.0938 149.111 99.5312 149.111C100.023 149.111 100.484 148.988 100.912 148.742C101.34 148.487 101.701 148.209 101.992 147.908L101.979 149.125C101.851 149.28 101.66 149.444 101.404 149.617C101.158 149.781 100.871 149.918 100.543 150.027C100.224 150.146 99.8867 150.205 99.5312 150.205C98.8385 150.205 98.2233 150.041 97.6855 149.713C97.1478 149.385 96.724 148.952 96.4141 148.414C96.1133 147.867 95.9629 147.27 95.9629 146.623C95.9629 145.976 96.1042 145.379 96.3867 144.832C96.6693 144.285 97.0566 143.848 97.5488 143.52C98.0501 143.191 98.6198 143.027 99.2578 143.027ZM99.2578 144.121C98.6927 144.121 98.2279 144.312 97.8633 144.695C97.4987 145.069 97.2708 145.525 97.1797 146.062H101.295C101.249 145.616 101.122 145.251 100.912 144.969C100.712 144.686 100.465 144.477 100.174 144.34C99.8822 144.194 99.5768 144.121 99.2578 144.121ZM109.471 143.164V144.039C109.689 143.793 109.967 143.565 110.305 143.355C110.651 143.137 111.057 143.027 111.521 143.027C112.014 143.027 112.474 143.146 112.902 143.383C113.331 143.611 113.659 143.957 113.887 144.422C114.206 144.039 114.552 143.711 114.926 143.438C115.299 143.164 115.737 143.027 116.238 143.027C116.703 143.027 117.136 143.132 117.537 143.342C117.947 143.542 118.275 143.852 118.521 144.271C118.777 144.682 118.904 145.201 118.904 145.83V150H117.783L117.77 145.939C117.77 145.347 117.615 144.896 117.305 144.586C117.004 144.276 116.585 144.121 116.047 144.121C115.655 144.121 115.313 144.244 115.021 144.49C114.73 144.736 114.452 145.023 114.188 145.352V150H113.066L113.053 145.939C113.053 145.347 112.898 144.896 112.588 144.586C112.287 144.276 111.868 144.121 111.33 144.121C110.956 144.121 110.615 144.23 110.305 144.449C110.004 144.668 109.726 144.932 109.471 145.242V150H108.35V143.164H109.471ZM123.84 143.027C124.232 143.027 124.628 143.123 125.029 143.314C125.439 143.497 125.79 143.752 126.082 144.08V143.164H127.203V150H126.082V148.838C125.845 149.202 125.521 149.521 125.111 149.795C124.71 150.068 124.25 150.205 123.73 150.205C123.147 150.205 122.614 150.059 122.131 149.768C121.648 149.467 121.26 149.052 120.969 148.523C120.686 147.995 120.545 147.384 120.545 146.691C120.545 145.935 120.686 145.283 120.969 144.736C121.26 144.189 121.657 143.77 122.158 143.479C122.66 143.178 123.22 143.027 123.84 143.027ZM124.045 144.121C123.553 144.121 123.133 144.244 122.787 144.49C122.441 144.736 122.172 145.055 121.98 145.447C121.798 145.83 121.707 146.245 121.707 146.691C121.707 147.129 121.798 147.535 121.98 147.908C122.163 148.273 122.418 148.564 122.746 148.783C123.083 149.002 123.471 149.111 123.908 149.111C124.327 149.111 124.701 149.002 125.029 148.783C125.357 148.564 125.617 148.264 125.809 147.881C126 147.489 126.091 147.051 126.082 146.568L126.068 145.256C125.786 144.9 125.48 144.622 125.152 144.422C124.833 144.221 124.464 144.121 124.045 144.121ZM130.648 143.164V144.244C130.794 144.062 130.981 143.88 131.209 143.697C131.437 143.506 131.692 143.346 131.975 143.219C132.266 143.091 132.567 143.027 132.877 143.027C133.342 143.027 133.766 143.132 134.148 143.342C134.531 143.542 134.837 143.852 135.064 144.271C135.292 144.682 135.406 145.201 135.406 145.83V150H134.285L134.271 145.939C134.271 145.347 134.139 144.896 133.875 144.586C133.62 144.276 133.223 144.121 132.686 144.121C132.321 144.121 131.956 144.258 131.592 144.531C131.236 144.796 130.922 145.105 130.648 145.461V150H129.527V143.164H130.648ZM140.342 143.027C140.734 143.027 141.13 143.123 141.531 143.314C141.941 143.497 142.292 143.752 142.584 144.08V143.164H143.705V150H142.584V148.838C142.347 149.202 142.023 149.521 141.613 149.795C141.212 150.068 140.752 150.205 140.232 150.205C139.649 150.205 139.116 150.059 138.633 149.768C138.15 149.467 137.762 149.052 137.471 148.523C137.188 147.995 137.047 147.384 137.047 146.691C137.047 145.935 137.188 145.283 137.471 144.736C137.762 144.189 138.159 143.77 138.66 143.479C139.161 143.178 139.722 143.027 140.342 143.027ZM140.547 144.121C140.055 144.121 139.635 144.244 139.289 144.49C138.943 144.736 138.674 145.055 138.482 145.447C138.3 145.83 138.209 146.245 138.209 146.691C138.209 147.129 138.3 147.535 138.482 147.908C138.665 148.273 138.92 148.564 139.248 148.783C139.585 149.002 139.973 149.111 140.41 149.111C140.829 149.111 141.203 149.002 141.531 148.783C141.859 148.564 142.119 148.264 142.311 147.881C142.502 147.489 142.593 147.051 142.584 146.568L142.57 145.256C142.288 144.9 141.982 144.622 141.654 144.422C141.335 144.221 140.966 144.121 140.547 144.121ZM148.846 143.027C149.238 143.027 149.634 143.123 150.035 143.314C150.445 143.497 150.796 143.752 151.088 144.08V143.164H152.209V149.863C152.209 150.674 152.045 151.349 151.717 151.887C151.389 152.424 150.951 152.826 150.404 153.09C149.857 153.354 149.26 153.486 148.613 153.486C148.194 153.486 147.834 153.436 147.533 153.336C147.242 153.245 146.991 153.126 146.781 152.98C146.572 152.844 146.38 152.712 146.207 152.584V151.381C146.344 151.481 146.521 151.609 146.74 151.764C146.968 151.928 147.237 152.074 147.547 152.201C147.866 152.329 148.221 152.393 148.613 152.393C149.06 152.393 149.47 152.311 149.844 152.146C150.217 151.982 150.518 151.741 150.746 151.422C150.974 151.103 151.088 150.72 151.088 150.273V148.838C150.851 149.202 150.527 149.521 150.117 149.795C149.716 150.068 149.256 150.205 148.736 150.205C148.153 150.205 147.62 150.059 147.137 149.768C146.654 149.467 146.266 149.052 145.975 148.523C145.692 147.995 145.551 147.384 145.551 146.691C145.551 145.935 145.692 145.283 145.975 144.736C146.266 144.189 146.663 143.77 147.164 143.479C147.665 143.178 148.226 143.027 148.846 143.027ZM149.051 144.135C148.559 144.135 148.139 144.258 147.793 144.504C147.447 144.741 147.178 145.055 146.986 145.447C146.804 145.83 146.713 146.245 146.713 146.691C146.713 147.129 146.804 147.53 146.986 147.895C147.169 148.259 147.424 148.551 147.752 148.77C148.089 148.988 148.477 149.098 148.914 149.098C149.333 149.098 149.707 148.988 150.035 148.77C150.363 148.551 150.623 148.25 150.814 147.867C151.006 147.484 151.097 147.051 151.088 146.568L151.074 145.256C150.792 144.9 150.486 144.627 150.158 144.436C149.839 144.235 149.47 144.135 149.051 144.135ZM157.35 143.027C158.051 143.027 158.635 143.173 159.1 143.465C159.564 143.757 159.911 144.153 160.139 144.654C160.376 145.156 160.494 145.721 160.494 146.35V147.02H155.244C155.299 147.402 155.431 147.753 155.641 148.072C155.85 148.391 156.124 148.646 156.461 148.838C156.798 149.02 157.186 149.111 157.623 149.111C158.115 149.111 158.576 148.988 159.004 148.742C159.432 148.487 159.792 148.209 160.084 147.908L160.07 149.125C159.943 149.28 159.751 149.444 159.496 149.617C159.25 149.781 158.963 149.918 158.635 150.027C158.316 150.146 157.979 150.205 157.623 150.205C156.93 150.205 156.315 150.041 155.777 149.713C155.24 149.385 154.816 148.952 154.506 148.414C154.205 147.867 154.055 147.27 154.055 146.623C154.055 145.976 154.196 145.379 154.479 144.832C154.761 144.285 155.148 143.848 155.641 143.52C156.142 143.191 156.712 143.027 157.35 143.027ZM157.35 144.121C156.785 144.121 156.32 144.312 155.955 144.695C155.59 145.069 155.363 145.525 155.271 146.062H159.387C159.341 145.616 159.214 145.251 159.004 144.969C158.803 144.686 158.557 144.477 158.266 144.34C157.974 144.194 157.669 144.121 157.35 144.121ZM163.461 143.164V144.039C163.68 143.793 163.958 143.565 164.295 143.355C164.641 143.137 165.047 143.027 165.512 143.027C166.004 143.027 166.464 143.146 166.893 143.383C167.321 143.611 167.649 143.957 167.877 144.422C168.196 144.039 168.542 143.711 168.916 143.438C169.29 143.164 169.727 143.027 170.229 143.027C170.693 143.027 171.126 143.132 171.527 143.342C171.938 143.542 172.266 143.852 172.512 144.271C172.767 144.682 172.895 145.201 172.895 145.83V150H171.773L171.76 145.939C171.76 145.347 171.605 144.896 171.295 144.586C170.994 144.276 170.575 144.121 170.037 144.121C169.645 144.121 169.303 144.244 169.012 144.49C168.72 144.736 168.442 145.023 168.178 145.352V150H167.057L167.043 145.939C167.043 145.347 166.888 144.896 166.578 144.586C166.277 144.276 165.858 144.121 165.32 144.121C164.947 144.121 164.605 144.23 164.295 144.449C163.994 144.668 163.716 144.932 163.461 145.242V150H162.34V143.164H163.461ZM177.83 143.027C178.532 143.027 179.115 143.173 179.58 143.465C180.045 143.757 180.391 144.153 180.619 144.654C180.856 145.156 180.975 145.721 180.975 146.35V147.02H175.725C175.779 147.402 175.911 147.753 176.121 148.072C176.331 148.391 176.604 148.646 176.941 148.838C177.279 149.02 177.666 149.111 178.104 149.111C178.596 149.111 179.056 148.988 179.484 148.742C179.913 148.487 180.273 148.209 180.564 147.908L180.551 149.125C180.423 149.28 180.232 149.444 179.977 149.617C179.73 149.781 179.443 149.918 179.115 150.027C178.796 150.146 178.459 150.205 178.104 150.205C177.411 150.205 176.796 150.041 176.258 149.713C175.72 149.385 175.296 148.952 174.986 148.414C174.686 147.867 174.535 147.27 174.535 146.623C174.535 145.976 174.676 145.379 174.959 144.832C175.242 144.285 175.629 143.848 176.121 143.52C176.622 143.191 177.192 143.027 177.83 143.027ZM177.83 144.121C177.265 144.121 176.8 144.312 176.436 144.695C176.071 145.069 175.843 145.525 175.752 146.062H179.867C179.822 145.616 179.694 145.251 179.484 144.969C179.284 144.686 179.038 144.477 178.746 144.34C178.454 144.194 178.149 144.121 177.83 144.121ZM183.941 143.164V144.244C184.087 144.062 184.274 143.88 184.502 143.697C184.73 143.506 184.985 143.346 185.268 143.219C185.559 143.091 185.86 143.027 186.17 143.027C186.635 143.027 187.059 143.132 187.441 143.342C187.824 143.542 188.13 143.852 188.357 144.271C188.585 144.682 188.699 145.201 188.699 145.83V150H187.578L187.564 145.939C187.564 145.347 187.432 144.896 187.168 144.586C186.913 144.276 186.516 144.121 185.979 144.121C185.614 144.121 185.249 144.258 184.885 144.531C184.529 144.796 184.215 145.105 183.941 145.461V150H182.82V143.164H183.941ZM192.705 141.195V143.164H194.701V144.217H192.705V148.223C192.705 148.505 192.778 148.729 192.924 148.893C193.07 149.057 193.293 149.139 193.594 149.139C193.867 149.139 194.095 149.107 194.277 149.043C194.46 148.97 194.619 148.893 194.756 148.811V149.727C194.574 149.872 194.378 149.986 194.168 150.068C193.967 150.16 193.694 150.205 193.348 150.205C192.764 150.205 192.322 150.032 192.021 149.686C191.73 149.33 191.584 148.861 191.584 148.277V144.217H190.271V143.889C190.718 143.688 191.092 143.36 191.393 142.904C191.693 142.439 191.958 141.87 192.186 141.195H192.705ZM201.961 143.164V144.039C202.18 143.793 202.458 143.565 202.795 143.355C203.141 143.137 203.547 143.027 204.012 143.027C204.504 143.027 204.964 143.146 205.393 143.383C205.821 143.611 206.149 143.957 206.377 144.422C206.696 144.039 207.042 143.711 207.416 143.438C207.79 143.164 208.227 143.027 208.729 143.027C209.193 143.027 209.626 143.132 210.027 143.342C210.438 143.542 210.766 143.852 211.012 144.271C211.267 144.682 211.395 145.201 211.395 145.83V150H210.273L210.26 145.939C210.26 145.347 210.105 144.896 209.795 144.586C209.494 144.276 209.075 144.121 208.537 144.121C208.145 144.121 207.803 144.244 207.512 144.49C207.22 144.736 206.942 145.023 206.678 145.352V150H205.557L205.543 145.939C205.543 145.347 205.388 144.896 205.078 144.586C204.777 144.276 204.358 144.121 203.82 144.121C203.447 144.121 203.105 144.23 202.795 144.449C202.494 144.668 202.216 144.932 201.961 145.242V150H200.84V143.164H201.961ZM216.604 143.027C217.296 143.027 217.911 143.191 218.449 143.52C218.987 143.848 219.406 144.285 219.707 144.832C220.017 145.379 220.172 145.976 220.172 146.623C220.172 147.27 220.017 147.867 219.707 148.414C219.406 148.952 218.987 149.385 218.449 149.713C217.911 150.041 217.296 150.205 216.604 150.205C215.911 150.205 215.296 150.041 214.758 149.713C214.22 149.385 213.796 148.952 213.486 148.414C213.186 147.867 213.035 147.27 213.035 146.623C213.035 145.976 213.186 145.379 213.486 144.832C213.796 144.285 214.22 143.848 214.758 143.52C215.296 143.191 215.911 143.027 216.604 143.027ZM216.604 144.121C216.12 144.121 215.697 144.24 215.332 144.477C214.967 144.704 214.685 145.01 214.484 145.393C214.293 145.766 214.197 146.176 214.197 146.623C214.197 147.061 214.293 147.471 214.484 147.854C214.685 148.227 214.967 148.533 215.332 148.77C215.697 148.997 216.12 149.111 216.604 149.111C217.096 149.111 217.52 148.997 217.875 148.77C218.24 148.533 218.518 148.227 218.709 147.854C218.91 147.471 219.01 147.061 219.01 146.623C219.01 146.176 218.91 145.766 218.709 145.393C218.518 145.01 218.24 144.704 217.875 144.477C217.52 144.24 217.096 144.121 216.604 144.121ZM223.139 143.164V144.531C223.403 144.076 223.722 143.711 224.096 143.438C224.469 143.164 224.852 143.027 225.244 143.027C225.508 143.027 225.745 143.073 225.955 143.164V144.463C225.663 144.29 225.372 144.203 225.08 144.203C224.615 144.203 224.237 144.367 223.945 144.695C223.663 145.023 223.394 145.415 223.139 145.871V150H222.018V143.164H223.139ZM230.207 143.027C230.909 143.027 231.492 143.173 231.957 143.465C232.422 143.757 232.768 144.153 232.996 144.654C233.233 145.156 233.352 145.721 233.352 146.35V147.02H228.102C228.156 147.402 228.288 147.753 228.498 148.072C228.708 148.391 228.981 148.646 229.318 148.838C229.656 149.02 230.043 149.111 230.48 149.111C230.973 149.111 231.433 148.988 231.861 148.742C232.29 148.487 232.65 148.209 232.941 147.908L232.928 149.125C232.8 149.28 232.609 149.444 232.354 149.617C232.107 149.781 231.82 149.918 231.492 150.027C231.173 150.146 230.836 150.205 230.48 150.205C229.788 150.205 229.173 150.041 228.635 149.713C228.097 149.385 227.673 148.952 227.363 148.414C227.062 147.867 226.912 147.27 226.912 146.623C226.912 145.976 227.053 145.379 227.336 144.832C227.618 144.285 228.006 143.848 228.498 143.52C228.999 143.191 229.569 143.027 230.207 143.027ZM230.207 144.121C229.642 144.121 229.177 144.312 228.812 144.695C228.448 145.069 228.22 145.525 228.129 146.062H232.244C232.199 145.616 232.071 145.251 231.861 144.969C231.661 144.686 231.415 144.477 231.123 144.34C230.831 144.194 230.526 144.121 230.207 144.121ZM242.115 143.027C242.817 143.027 243.4 143.173 243.865 143.465C244.33 143.757 244.676 144.153 244.904 144.654C245.141 145.156 245.26 145.721 245.26 146.35V147.02H240.01C240.064 147.402 240.197 147.753 240.406 148.072C240.616 148.391 240.889 148.646 241.227 148.838C241.564 149.02 241.951 149.111 242.389 149.111C242.881 149.111 243.341 148.988 243.77 148.742C244.198 148.487 244.558 148.209 244.85 147.908L244.836 149.125C244.708 149.28 244.517 149.444 244.262 149.617C244.016 149.781 243.729 149.918 243.4 150.027C243.081 150.146 242.744 150.205 242.389 150.205C241.696 150.205 241.081 150.041 240.543 149.713C240.005 149.385 239.581 148.952 239.271 148.414C238.971 147.867 238.82 147.27 238.82 146.623C238.82 145.976 238.962 145.379 239.244 144.832C239.527 144.285 239.914 143.848 240.406 143.52C240.908 143.191 241.477 143.027 242.115 143.027ZM242.115 144.121C241.55 144.121 241.085 144.312 240.721 144.695C240.356 145.069 240.128 145.525 240.037 146.062H244.152C244.107 145.616 243.979 145.251 243.77 144.969C243.569 144.686 243.323 144.477 243.031 144.34C242.74 144.194 242.434 144.121 242.115 144.121ZM249.922 143.027C250.314 143.027 250.71 143.123 251.111 143.314C251.521 143.497 251.872 143.752 252.164 144.08V143.164H253.285V150H252.164V148.838C251.927 149.202 251.604 149.521 251.193 149.795C250.792 150.068 250.332 150.205 249.812 150.205C249.229 150.205 248.696 150.059 248.213 149.768C247.73 149.467 247.342 149.052 247.051 148.523C246.768 147.995 246.627 147.384 246.627 146.691C246.627 145.935 246.768 145.283 247.051 144.736C247.342 144.189 247.739 143.77 248.24 143.479C248.742 143.178 249.302 143.027 249.922 143.027ZM250.127 144.121C249.635 144.121 249.215 144.244 248.869 144.49C248.523 144.736 248.254 145.055 248.062 145.447C247.88 145.83 247.789 146.245 247.789 146.691C247.789 147.129 247.88 147.535 248.062 147.908C248.245 148.273 248.5 148.564 248.828 148.783C249.165 149.002 249.553 149.111 249.99 149.111C250.41 149.111 250.783 149.002 251.111 148.783C251.439 148.564 251.699 148.264 251.891 147.881C252.082 147.489 252.173 147.051 252.164 146.568L252.15 145.256C251.868 144.9 251.562 144.622 251.234 144.422C250.915 144.221 250.546 144.121 250.127 144.121ZM257.646 143.027C258.048 143.027 258.421 143.087 258.768 143.205C259.114 143.314 259.365 143.428 259.52 143.547V144.75C259.328 144.604 259.068 144.463 258.74 144.326C258.412 144.189 258.075 144.121 257.729 144.121C257.3 144.121 256.977 144.221 256.758 144.422C256.548 144.622 256.443 144.832 256.443 145.051C256.443 145.224 256.503 145.402 256.621 145.584C256.749 145.757 256.967 145.898 257.277 146.008L258.426 146.418C258.872 146.573 259.205 146.796 259.424 147.088C259.643 147.38 259.752 147.721 259.752 148.113C259.752 148.496 259.643 148.847 259.424 149.166C259.214 149.485 258.918 149.74 258.535 149.932C258.161 150.114 257.729 150.205 257.236 150.205C256.972 150.205 256.694 150.169 256.402 150.096C256.12 150.032 255.865 149.954 255.637 149.863C255.409 149.763 255.24 149.676 255.131 149.604V148.4C255.258 148.492 255.436 148.596 255.664 148.715C255.901 148.824 256.152 148.92 256.416 149.002C256.68 149.075 256.926 149.111 257.154 149.111C257.583 149.111 257.92 149.016 258.166 148.824C258.421 148.633 258.549 148.396 258.549 148.113C258.549 147.895 258.462 147.721 258.289 147.594C258.125 147.466 257.883 147.343 257.564 147.225L256.553 146.855C256.024 146.655 255.673 146.404 255.5 146.104C255.327 145.794 255.24 145.443 255.24 145.051C255.24 144.467 255.459 143.984 255.896 143.602C256.334 143.219 256.917 143.027 257.646 143.027ZM262.555 139.883C262.819 139.883 263.038 139.979 263.211 140.17C263.393 140.352 263.484 140.566 263.484 140.812C263.484 141.049 263.393 141.264 263.211 141.455C263.038 141.646 262.819 141.742 262.555 141.742C262.29 141.742 262.067 141.646 261.885 141.455C261.712 141.264 261.625 141.049 261.625 140.812C261.625 140.566 261.712 140.352 261.885 140.17C262.067 139.979 262.29 139.883 262.555 139.883ZM263.252 143.164V150H262.131V144.217H261.051V143.164H263.252ZM268.488 143.027C269.19 143.027 269.773 143.173 270.238 143.465C270.703 143.757 271.049 144.153 271.277 144.654C271.514 145.156 271.633 145.721 271.633 146.35V147.02H266.383C266.438 147.402 266.57 147.753 266.779 148.072C266.989 148.391 267.262 148.646 267.6 148.838C267.937 149.02 268.324 149.111 268.762 149.111C269.254 149.111 269.714 148.988 270.143 148.742C270.571 148.487 270.931 148.209 271.223 147.908L271.209 149.125C271.081 149.28 270.89 149.444 270.635 149.617C270.389 149.781 270.102 149.918 269.773 150.027C269.454 150.146 269.117 150.205 268.762 150.205C268.069 150.205 267.454 150.041 266.916 149.713C266.378 149.385 265.954 148.952 265.645 148.414C265.344 147.867 265.193 147.27 265.193 146.623C265.193 145.976 265.335 145.379 265.617 144.832C265.9 144.285 266.287 143.848 266.779 143.52C267.281 143.191 267.85 143.027 268.488 143.027ZM268.488 144.121C267.923 144.121 267.458 144.312 267.094 144.695C266.729 145.069 266.501 145.525 266.41 146.062H270.525C270.48 145.616 270.352 145.251 270.143 144.969C269.942 144.686 269.696 144.477 269.404 144.34C269.113 144.194 268.807 144.121 268.488 144.121ZM274.6 143.164V144.531C274.864 144.076 275.183 143.711 275.557 143.438C275.93 143.164 276.313 143.027 276.705 143.027C276.969 143.027 277.206 143.073 277.416 143.164V144.463C277.124 144.29 276.833 144.203 276.541 144.203C276.076 144.203 275.698 144.367 275.406 144.695C275.124 145.023 274.855 145.415 274.6 145.871V150H273.479V143.164H274.6Z" fill="#ADADAD"/>
</svg>
